# xmcd
#
# Track frame offsets: 
#        150
#        23282
#        37652
#        50816
#        65176
#        82557
#        95849
#        115311
#        132411
#        151243
#        168370
#        186616
#
# Disc length: 2860 seconds
#
# Revision: 0
# Processed by: cddbd v1.5.2PL0 Copyright (c) Steve Scherf et al.
# Submitted via: ExactAudioCopy v0.95b4
#
DISCID=990b2a0c
DTITLE=The Black Eyed Peas - The E.N.D. Deluxe Edition [Disc 2]
DYEAR=2009
DGENRE=Rap
TTITLE0=Where Va Wanna Go
TTITLE1=Simple Little Melody
TTITLE2=Mare
TTITLE3=Don't Bring Me Down
TTITLE4=Pump It Harder
TTITLE5=Let's Get Re-Started
TTITLE6=Shut The Phunk Up
TTITLE7=That's The Joint
TTITLE8=Another Weekend
TTITLE9=Don't Phunk Around
TTITLE10=Boom Boom Guetta (David Guetta's Elektro Hop Remix)
TTITLE11=I Gotta Feeling (David Guetta's FMif Remix)
EXTD=
EXTT0=
EXTT1=
EXTT2=
EXTT3=
EXTT4=
EXTT5=
EXTT6=
EXTT7=
EXTT8=
EXTT9=
EXTT10=
EXTT11=
PLAYORDER=
